<svg xmlns="http://www.w3.org/2000/svg" viewBox="0 0 183.77 106.68"><defs><style>.cls-1{fill:#5e387c;}</style></defs><g id="Layer_2" data-name="Layer 2"><g id="Layer_1-2" data-name="Layer 1"><path class="cls-1" d="M39.11,106.68H10.81a2,2,0,0,1-2-2V22.37a2,2,0,0,1,.84-1.63L37.94.38A2,2,0,0,1,41.11,2V104.68A2,2,0,0,1,39.11,106.68Zm-26.3-4h24.3V5.9L12.81,23.39Z"/><rect class="cls-1" y="102.68" width="97.23" height="4"/><path class="cls-1" d="M86.54,106.68H49.15a2,2,0,0,1-2-2V44.81a2,2,0,0,1,2-2H86.54a2,2,0,0,1,2,2v59.87A2,2,0,0,1,86.54,106.68Zm-35.39-4H84.54V46.81H51.15Z"/><path class="cls-1" d="M125.65,106.68H97.36a2,2,0,0,1-2-2V22.37a2,2,0,0,1,.83-1.63L124.48.38A2,2,0,0,1,127.65,2V104.68A2,2,0,0,1,125.65,106.68Zm-26.29-4h24.29V5.9L99.36,23.39Z"/><rect class="cls-1" x="86.54" y="102.68" width="97.23" height="4"/><path class="cls-1" d="M173.09,106.68h-37.4a2,2,0,0,1-2-2V44.81a2,2,0,0,1,2-2h37.4a2,2,0,0,1,2,2v59.87A2,2,0,0,1,173.09,106.68Zm-35.4-4h33.4V46.81h-33.4Z"/><circle class="cls-1" cx="71.96" cy="35.77" r="8.6"/><path class="cls-1" d="M91.27,59.39a5.41,5.41,0,0,0-4.27-2H80.63a3.53,3.53,0,0,1-2.57-1.12,56.28,56.28,0,0,0-15.75-12,28.31,28.31,0,0,0-26.88.44,6,6,0,0,0-2.71,3.07A4.51,4.51,0,0,0,32.63,51a5,5,0,0,0,1.84,2.4c2,1.46,3.89.95,5.78.09,5.41-2.26,10.43-3.67,14.09-2L42.5,72A4,4,0,0,1,39,74H29.17a5.86,5.86,0,0,0-4.11,1.64l-.13.14a4.78,4.78,0,0,0-.56,6A4.47,4.47,0,0,0,25.72,83a4.74,4.74,0,0,0,2.47.66H43.88a4.27,4.27,0,0,0,3.59-2l5.7-8.78,6.28,6.15A2.48,2.48,0,0,1,60,81.73l-6.25,16.2a5.53,5.53,0,0,0,0,4.19,4,4,0,0,0,2.71,2.37,5.63,5.63,0,0,0,3.28-.1,5.08,5.08,0,0,0,3-3l8.14-21.09A4.06,4.06,0,0,0,70,76l-9.27-9.4,5-8.46L73.72,65a5.52,5.52,0,0,0,3.37,1.34l10.24.46a4.85,4.85,0,0,0,5.06-4.38v-.08A5.69,5.69,0,0,0,91.27,59.39Z"/><circle class="cls-1" cx="129.08" cy="35.77" r="8.6"/><path class="cls-1" d="M148.39,59.39a5.38,5.38,0,0,0-4.27-2h-6.37a3.5,3.5,0,0,1-2.56-1.12,56.28,56.28,0,0,0-15.75-12,28.34,28.34,0,0,0-26.89.44,6,6,0,0,0-2.7,3.07A4.51,4.51,0,0,0,89.76,51a5,5,0,0,0,1.84,2.4c2,1.46,3.89.95,5.78.09,5.41-2.26,10.43-3.67,14.09-2L99.63,72a4,4,0,0,1-3.47,2H86.3a5.86,5.86,0,0,0-4.11,1.64.93.93,0,0,1-.14.14,4.78,4.78,0,0,0-.55,6A4.43,4.43,0,0,0,82.84,83a4.77,4.77,0,0,0,2.47.66H101a4.25,4.25,0,0,0,3.58-2l5.71-8.78,6.28,6.15a2.46,2.46,0,0,1,.57,2.65l-6.24,16.2a5.53,5.53,0,0,0,0,4.19,4,4,0,0,0,2.7,2.37,5.66,5.66,0,0,0,3.29-.1,5.11,5.11,0,0,0,3-3l8.14-21.09a4.06,4.06,0,0,0-.9-4.33l-9.27-9.4,5-8.46L130.84,65a5.57,5.57,0,0,0,3.38,1.34l10.23.46a4.86,4.86,0,0,0,5.07-4.38v-.08A5.61,5.61,0,0,0,148.39,59.39Z"/></g></g></svg>