<svg xmlns="http://www.w3.org/2000/svg" viewBox="0 0 126.05 111.74"><defs><style>.cls-1{fill:#5e387c;}</style></defs><g id="Layer_2" data-name="Layer 2"><g id="Layer_1-2" data-name="Layer 1"><path class="cls-1" d="M125.76,108,94.93,49.15h0L77.85,16.54,47.44,74.61l-4-4.79a11.67,11.67,0,0,0-18.77,1.05L.38,108.19a2.26,2.26,0,0,0-.11,2.34L1,111.74H123.49a2.56,2.56,0,0,0,2.27-3.75ZM77.85,25.63,89.76,48.36l-3.48,3.48-4.21-4.22-4.22,4.22-4.22-4.22-4.21,4.22-3.48-3.48Zm-72,81.89L28.25,73.17a7.45,7.45,0,0,1,12-.67l5.08,6.16-4.39,8.39L30.19,107.52Zm57.25,0v-7.07a18.94,18.94,0,0,0,29.52,0v7.07H63.09Zm48.49,0H96.83v-7.07a18.93,18.93,0,0,0,14.75,7.07,2.11,2.11,0,1,0,0-4.21A14.78,14.78,0,0,1,97,90.59a14.7,14.7,0,0,0,10.39,4.28,2.11,2.11,0,1,0,0-4.21A10.55,10.55,0,0,1,96.83,80.12v-.06a10.4,10.4,0,0,0,6.32,2.16,2.11,2.11,0,1,0,0-4.21,6.33,6.33,0,0,1-6.32-6.33,2.11,2.11,0,1,0-4.22,0A6.34,6.34,0,0,1,86.28,78a2.11,2.11,0,0,0,0,4.21,10.43,10.43,0,0,0,6.33-2.16v.06A10.55,10.55,0,0,1,82.07,90.66a2.11,2.11,0,1,0,0,4.21,14.69,14.69,0,0,0,10.38-4.28,14.74,14.74,0,0,1-29.2,0,14.69,14.69,0,0,0,10.38,4.28,2.11,2.11,0,1,0,0-4.21A10.55,10.55,0,0,1,63.09,80.12v-.06a10.43,10.43,0,0,0,6.33,2.16,2.11,2.11,0,1,0,0-4.21,6.34,6.34,0,0,1-6.33-6.33,2.11,2.11,0,1,0-4.21,0A6.34,6.34,0,0,1,52.55,78a2.11,2.11,0,1,0,0,4.21,10.45,10.45,0,0,0,6.33-2.16v.06A10.56,10.56,0,0,1,48.33,90.66a2.11,2.11,0,0,0,0,4.21,14.7,14.7,0,0,0,10.39-4.28,14.78,14.78,0,0,1-14.6,12.72,2.11,2.11,0,1,0,0,4.21,19,19,0,0,0,14.76-7.07v7.07H35L63.89,52.27l5.53,5.53,4.21-4.22,4.22,4.22,4.22-4.22,4.21,4.22,5.53-5.53,28.94,55.25Z"/><path class="cls-1" d="M27.25,33.73A16.87,16.87,0,1,0,10.38,16.87,16.88,16.88,0,0,0,27.25,33.73Zm0-29.51A12.65,12.65,0,1,1,14.6,16.87,12.66,12.66,0,0,1,27.25,4.22Z"/><path class="cls-1" d="M96.83,23.19a9.28,9.28,0,0,1,9.27,9.28,2.11,2.11,0,1,0,4.22,0A5.49,5.49,0,0,1,115.8,27a2.11,2.11,0,1,0,0-4.21,9.64,9.64,0,0,0-7.15,3.2,13.53,13.53,0,0,0-11.82-7,2.11,2.11,0,1,0,0,4.22Z"/></g></g></svg>