<svg xmlns="http://www.w3.org/2000/svg" viewBox="0 0 118.34 112.22"><defs><style>.cls-1{fill:#5e387c;}</style></defs><g id="Layer_2" data-name="Layer 2"><g id="Layer_1-2" data-name="Layer 1"><path class="cls-1" d="M104.06,0A14.29,14.29,0,0,0,89.94,12.24H28.4a14.27,14.27,0,0,0-28.4,2V97.94a14.29,14.29,0,0,0,14.28,14.28h89.78a14.29,14.29,0,0,0,14.28-14.28V14.28A14.29,14.29,0,0,0,104.06,0ZM4.08,14.28a10.21,10.21,0,0,1,20.41,0V88A14.28,14.28,0,0,0,4.08,88Zm100,93.86H46.93v-2a2,2,0,0,0-4.08,0v2H38.77V100a2,2,0,1,0-4.08,0v8.16H14.28a10.2,10.2,0,1,1,10.21-10.2h4.08V16.32h40.8v8.17a2,2,0,0,0,4.09,0V16.32h4.08V20.4a2,2,0,0,0,4.08,0V16.32h8.16V97.94h4.08a10.2,10.2,0,1,1,10.2,10.2ZM114.26,88a14.27,14.27,0,0,0-20.4,0V14.28a10.2,10.2,0,1,1,20.4,0Z"/><path class="cls-1" d="M45.57,55.42A14.66,14.66,0,0,1,44.89,51a2,2,0,0,0-4.08,0,18.85,18.85,0,0,0,.86,5.63,2,2,0,0,0,1.95,1.43,2.15,2.15,0,0,0,.61-.09A2,2,0,0,0,45.57,55.42Z"/><path class="cls-1" d="M53,64.55a17.48,17.48,0,0,1-4.57-3.92,2,2,0,0,0-3.16,2.59,21.67,21.67,0,0,0,5.63,4.83,2,2,0,1,0,2.1-3.5Z"/><path class="cls-1" d="M68.89,68.2a18.92,18.92,0,0,0-5.64-.87,20.88,20.88,0,0,1-4.61-.51,2,2,0,1,0-.91,4,24.91,24.91,0,0,0,5.52.62,14.66,14.66,0,0,1,4.41.68,1.9,1.9,0,0,0,.61.1,2,2,0,0,0,.62-4Z"/><path class="cls-1" d="M80.29,77.42a21.47,21.47,0,0,0-4.82-5.63,2,2,0,0,0-2.59,3.15,18.08,18.08,0,0,1,3.92,4.58,2,2,0,0,0,1.75,1,2.1,2.1,0,0,0,1-.29A2,2,0,0,0,80.29,77.42Z"/><path class="cls-1" d="M80.59,82.72a2,2,0,0,0-1.53,2.45,20.75,20.75,0,0,1,.52,4.61,2,2,0,1,0,4.08,0A24.87,24.87,0,0,0,83,84.25,2,2,0,0,0,80.59,82.72Z"/><polygon class="cls-1" points="47.53 48.37 50.41 45.49 45.73 40.81 50.41 36.13 47.53 33.24 42.85 37.92 38.17 33.24 35.28 36.13 39.96 40.81 35.28 45.49 38.17 48.37 42.85 43.69 47.53 48.37"/></g></g></svg>