<svg xmlns="http://www.w3.org/2000/svg" viewBox="0 0 475.01 73.99"><defs><style>.cls-1{font-size:54.37px;font-family:SegoeUI-Bold, Segoe UI;font-weight:700;}.cls-1,.cls-5,.cls-7{fill:#fff;}.cls-2{letter-spacing:-0.01em;}.cls-3{letter-spacing:0em;}.cls-4{letter-spacing:0em;}.cls-5{stroke:#5e387c;}.cls-5,.cls-6{stroke-miterlimit:10;stroke-width:2px;}.cls-6{fill:#5e387c;stroke:#fff;}</style></defs><g id="Layer_2" data-name="Layer 2"><g id="Layer_1-2" data-name="Layer 1"><text class="cls-1" transform="translate(91.98 50.58)">Ad<tspan class="cls-2" x="71.89" y="0">v</tspan><tspan x="100.83" y="0">entu</tspan><tspan class="cls-3" x="217.19" y="0">r</tspan><tspan class="cls-4" x="238.61" y="0">eMap</tspan></text><polygon class="cls-5" points="1.91 52.04 33.21 23.75 77.15 35.19 57.47 71.9 1.91 52.04"/><path class="cls-6" d="M42.38,1c1.06.23,2.13.43,3.19.69A19.31,19.31,0,0,1,57.39,30.25C52,39.38,46.75,42.3,41.46,51.48c-.2.36-.42.71-.7,1.19-.26-.39-.47-.68-.65-1-5.37-9.31-10.68-12.32-16-21.63A19.27,19.27,0,0,1,38.45,1.24,4.57,4.57,0,0,0,39.19,1Z"/><path class="cls-7" d="M40.77,32.85A12.4,12.4,0,0,0,53.25,20.48a12.47,12.47,0,1,0-24.93,0A12.4,12.4,0,0,0,40.77,32.85Z"/></g></g></svg>