<svg xmlns="http://www.w3.org/2000/svg" viewBox="0 0 262.96 42.73"><defs><style>.cls-1{font-size:30px;font-family:SegoeUI-Bold, Segoe UI;font-weight:700;}.cls-1,.cls-5{fill:#5e387c;}.cls-2{letter-spacing:-0.01em;}.cls-3{letter-spacing:0em;}.cls-4,.cls-6{fill:#fff;}.cls-4{stroke:#5e387c;stroke-miterlimit:10;stroke-width:2px;}</style></defs><g id="Layer_2" data-name="Layer 2"><g id="Layer_1-2" data-name="Layer 1"><text class="cls-1" transform="translate(51.61 29.81)">Ad<tspan class="cls-2" x="39.67" y="0">v</tspan><tspan x="55.63" y="0">entu</tspan><tspan class="cls-3" x="119.84" y="0">r</tspan><tspan x="131.66" y="0">eMap</tspan></text><polygon class="cls-4" points="1.91 28.16 19.18 12.55 43.43 18.86 32.57 39.12 1.91 28.16"/><path class="cls-5" d="M24.24,0c.59.13,1.18.24,1.76.38a10.65,10.65,0,0,1,6.52,15.76c-3,5-5.87,6.65-8.78,11.72-.12.19-.24.39-.39.65-.15-.22-.26-.38-.36-.55-3-5.13-5.9-6.79-8.86-11.93A10.64,10.64,0,0,1,22.07.13,2.8,2.8,0,0,0,22.48,0Zm-.89,17.58a6.85,6.85,0,0,0,6.89-6.83,6.88,6.88,0,1,0-13.75,0A6.84,6.84,0,0,0,23.35,17.58Z"/><path class="cls-6" d="M23.35,17.58a6.85,6.85,0,0,0,6.89-6.83,6.88,6.88,0,1,0-13.75,0A6.84,6.84,0,0,0,23.35,17.58Z"/></g></g></svg>