<svg xmlns="http://www.w3.org/2000/svg" viewBox="0 0 473.09 73"><defs><style>.cls-1,.cls-2{fill:#fff;}.cls-2{stroke:#5e387c;}.cls-2,.cls-3{stroke-miterlimit:10;stroke-width:2px;}.cls-3{fill:#5e387c;stroke:#fff;}</style></defs><g id="Layer_2" data-name="Layer 2"><g id="Layer_1-2" data-name="Layer 1"><path class="cls-1" d="M129.81,50.44h-9.35L117.76,42H104.22l-2.68,8.47H92.25L106.1,12.37h10.17Zm-14-15-4.09-12.8a16.48,16.48,0,0,1-.63-3.42h-.22a13.86,13.86,0,0,1-.66,3.32l-4.14,12.9Z"/><path class="cls-1" d="M160.34,50.44H152V46.7h-.11a9.41,9.41,0,0,1-8.41,4.4,10.32,10.32,0,0,1-8.2-3.59q-3.12-3.6-3.11-10,0-6.75,3.42-10.81a11.21,11.21,0,0,1,9-4.06q5.25,0,7.32,3.77H152V10.19h8.39Zm-8.23-13.22v-2a6.42,6.42,0,0,0-1.54-4.4,5.44,5.44,0,0,0-8.36.44,10.12,10.12,0,0,0-1.57,6,8.85,8.85,0,0,0,1.51,5.52,5.37,5.37,0,0,0,8.35-.11A8.5,8.5,0,0,0,152.11,37.22Z"/><path class="cls-1" d="M193.28,23.25,183.17,50.44h-9.56L164,23.25h9L177.67,40a23.17,23.17,0,0,1,.93,4.83h.11a26.86,26.86,0,0,1,1-4.67l4.83-16.92Z"/><path class="cls-1" d="M220.76,39.24H203q.42,5.91,7.46,5.92A14.51,14.51,0,0,0,218.37,43v6.06a20.77,20.77,0,0,1-9.79,2q-6.59,0-10.22-3.65t-3.64-10.18q0-6.77,3.93-10.72a13.08,13.08,0,0,1,9.66-4q5.94,0,9.2,3.53t3.25,9.59ZM213,34.09c0-3.9-1.57-5.84-4.72-5.84a4.48,4.48,0,0,0-3.49,1.67,7.57,7.57,0,0,0-1.8,4.17Z"/><path class="cls-1" d="M252,50.44h-8.36V35.33q0-6.31-4.52-6.31a4.46,4.46,0,0,0-3.58,1.67,6.35,6.35,0,0,0-1.41,4.25v15.5h-8.39V23.25h8.39v4.31h.11a9.61,9.61,0,0,1,8.73-5q9,0,9,11.2Z"/><path class="cls-1" d="M275.08,50.12a12.35,12.35,0,0,1-5.6,1q-8.88,0-8.87-9.21V29.44H256.2V23.25h4.41V17.39L269,15v8.25h6.11v6.19H269v11c0,2.83,1.13,4.25,3.37,4.25a5.73,5.73,0,0,0,2.74-.77Z"/><path class="cls-1" d="M305.63,50.44h-8.36V46.3h-.13a9.49,9.49,0,0,1-8.31,4.8q-9.45,0-9.45-11.44V23.25h8.36V38.92q0,5.76,4.57,5.76a4.54,4.54,0,0,0,3.61-1.58,6.38,6.38,0,0,0,1.35-4.29V23.25h8.36Z"/><path class="cls-1" d="M330.43,30.82A7.27,7.27,0,0,0,326.9,30a5.11,5.11,0,0,0-4.28,2,8.81,8.81,0,0,0-1.54,5.46v13H312.7V23.25h8.38V28.3h.11q2-5.52,7.17-5.52a5.28,5.28,0,0,1,2.07.32Z"/><path class="cls-1" d="M358.54,39.24H340.81q.42,5.91,7.46,5.92A14.51,14.51,0,0,0,356.15,43v6.06a20.77,20.77,0,0,1-9.79,2q-6.58,0-10.22-3.65T332.5,37.27q0-6.77,3.93-10.72a13.08,13.08,0,0,1,9.66-4q6,0,9.2,3.53t3.25,9.59Zm-7.78-5.15c0-3.9-1.57-5.84-4.72-5.84a4.48,4.48,0,0,0-3.49,1.67,7.56,7.56,0,0,0-1.79,4.17Z"/><path class="cls-1" d="M407.73,50.44h-8.46V27.66c0-2.46.1-5.17.31-8.15h-.21a40.72,40.72,0,0,1-1.19,5l-8.92,25.88h-7l-9.08-25.62A47.5,47.5,0,0,1,372,19.51h-.24c.23,3.75.34,7,.34,9.88v21h-7.72V12.37h12.55l7.78,22.57a32.31,32.31,0,0,1,1.36,5.44h.15a55.52,55.52,0,0,1,1.52-5.5l7.78-22.51h12.23Z"/><path class="cls-1" d="M438.19,50.44h-7.94v-3.9h-.11A8.86,8.86,0,0,1,422,51.1a8.44,8.44,0,0,1-6.22-2.24,8.06,8.06,0,0,1-2.27-6q0-7.9,9.37-9.13l7.38-1q0-4.45-4.83-4.46a16.48,16.48,0,0,0-9.24,2.89V24.87A21,21,0,0,1,421,23.28a25.22,25.22,0,0,1,5.54-.69q11.63,0,11.63,11.6Zm-7.89-11V37.56l-4.94.64c-2.72.36-4.09,1.59-4.09,3.69a3.06,3.06,0,0,0,1,2.35,3.82,3.82,0,0,0,2.69.92,5,5,0,0,0,3.85-1.64A5.88,5.88,0,0,0,430.3,39.4Z"/><path class="cls-1" d="M453.32,47.28h-.11V62.94h-8.39V23.25h8.39v4.09h.11a10.67,10.67,0,0,1,16.89-1.13q2.88,3.63,2.88,9.87,0,6.8-3.35,10.91a11,11,0,0,1-8.94,4.11A8.45,8.45,0,0,1,453.32,47.28Zm-.24-11.15v2.18a6.93,6.93,0,0,0,1.48,4.59,4.86,4.86,0,0,0,3.91,1.78,5.13,5.13,0,0,0,4.44-2.22,10.66,10.66,0,0,0,1.58-6.28q0-7.16-5.57-7.16A5.24,5.24,0,0,0,454.71,31,7.76,7.76,0,0,0,453.08,36.13Z"/><polygon class="cls-2" points="1.91 51.9 33.21 23.61 77.15 35.05 57.47 71.77 1.91 51.9"/><path class="cls-3" d="M40.79,1a24.8,24.8,0,0,1,4.78.56A19.3,19.3,0,0,1,57.39,30.11c-5.36,9.14-10.64,12-15.93,21.24-.2.35-.42.7-.7,1.18-.26-.39-.47-.68-.65-1-5.37-9.31-10.68-12.31-16-21.63A19.27,19.27,0,0,1,38.45,1.1S39.73,1,40.79,1Z"/><path class="cls-1" d="M40.77,32.72A12.41,12.41,0,0,0,53.25,20.34a12.47,12.47,0,1,0-24.93,0A12.4,12.4,0,0,0,40.77,32.72Z"/></g></g></svg>