<svg xmlns="http://www.w3.org/2000/svg" viewBox="0 0 261.9 40.32"><defs><style>.cls-1{fill:#5e387c;}.cls-2{fill:none;stroke:#5e387c;stroke-miterlimit:10;stroke-width:2px;}.cls-3{fill:#fff;}</style></defs><g id="Layer_2" data-name="Layer 2"><g id="Layer_1-2" data-name="Layer 1"><path class="cls-1" d="M72.48,29.77H67.33l-1.5-4.67H58.36l-1.48,4.67H51.76l7.64-21H65Zm-7.73-8.3-2.26-7.06a9.83,9.83,0,0,1-.35-1.89H62a7.9,7.9,0,0,1-.36,1.83l-2.29,7.12Z"/><path class="cls-1" d="M89.33,29.77H84.7V27.71h-.06A5.18,5.18,0,0,1,80,30.14a5.67,5.67,0,0,1-4.53-2,8.22,8.22,0,0,1-1.71-5.54,8.93,8.93,0,0,1,1.89-6,6.14,6.14,0,0,1,4.95-2.24,4.2,4.2,0,0,1,4,2.08h.06V7.57h4.63Zm-4.54-7.29V21.35a3.51,3.51,0,0,0-.85-2.43,3,3,0,0,0-4.62.24,5.67,5.67,0,0,0-.86,3.32,4.86,4.86,0,0,0,.84,3.05,3,3,0,0,0,4.6-.06A4.73,4.73,0,0,0,84.79,22.48Z"/><path class="cls-1" d="M107.51,14.77l-5.58,15H96.65l-5.31-15h5L98.89,24a13.08,13.08,0,0,1,.52,2.66h.06A13.88,13.88,0,0,1,100,24.1l2.66-9.33Z"/><path class="cls-1" d="M122.67,23.59h-9.79q.24,3.27,4.12,3.27a8,8,0,0,0,4.35-1.17V29a11.46,11.46,0,0,1-5.4,1.11,7.56,7.56,0,0,1-5.64-2,7.58,7.58,0,0,1-2-5.61,8,8,0,0,1,2.17-5.92,7.19,7.19,0,0,1,5.33-2.18,6.53,6.53,0,0,1,5.07,1.95,7.46,7.46,0,0,1,1.8,5.28Zm-4.29-2.84c0-2.15-.87-3.22-2.61-3.22a2.49,2.49,0,0,0-1.93.92,4.23,4.23,0,0,0-1,2.3Z"/><path class="cls-1" d="M139.91,29.77H135.3V21.44c0-2.33-.83-3.49-2.49-3.49a2.49,2.49,0,0,0-2,.92,3.53,3.53,0,0,0-.78,2.35v8.55h-4.63v-15h4.63v2.38h.06a5.29,5.29,0,0,1,4.82-2.74q5,0,5,6.18Z"/><path class="cls-1" d="M152.64,29.6a6.84,6.84,0,0,1-3.09.54q-4.89,0-4.89-5.08V18.19h-2.44V14.77h2.44V11.54l4.61-1.32v4.55h3.37v3.42h-3.37v6.06q0,2.34,1.86,2.34a3.17,3.17,0,0,0,1.51-.42Z"/><path class="cls-1" d="M169.5,29.77h-4.61V27.49h-.08a5.22,5.22,0,0,1-4.58,2.65c-3.48,0-5.22-2.11-5.22-6.31V14.77h4.62v8.65c0,2.11.84,3.17,2.52,3.17a2.49,2.49,0,0,0,2-.87,3.5,3.5,0,0,0,.75-2.36V14.77h4.61Z"/><path class="cls-1" d="M183.18,19a4,4,0,0,0-2-.46,2.79,2.79,0,0,0-2.35,1.11,4.81,4.81,0,0,0-.85,3v7.16H173.4v-15H178v2.79h.05c.74-2,2-3,4-3a2.89,2.89,0,0,1,1.14.18Z"/><path class="cls-1" d="M198.69,23.59h-9.78q.24,3.27,4.12,3.27a8,8,0,0,0,4.35-1.17V29A11.48,11.48,0,0,1,192,30.14a7.59,7.59,0,0,1-5.64-2,7.58,7.58,0,0,1-2-5.61,8,8,0,0,1,2.17-5.92,7.2,7.2,0,0,1,5.33-2.18,6.56,6.56,0,0,1,5.08,1.95,7.46,7.46,0,0,1,1.79,5.28Zm-4.29-2.84c0-2.15-.87-3.22-2.6-3.22a2.46,2.46,0,0,0-1.93.92,4.23,4.23,0,0,0-1,2.3Z"/><path class="cls-1" d="M225.84,29.77h-4.67V17.2c0-1.35.05-2.85.17-4.49h-.12a20.65,20.65,0,0,1-.66,2.78l-4.92,14.28h-3.86l-5-14.13a26,26,0,0,1-.66-2.93H206c.13,2.07.2,3.88.2,5.45V29.77H201.9v-21h6.93l4.29,12.45a18,18,0,0,1,.75,3H214a30.29,30.29,0,0,1,.83-3l4.3-12.42h6.75Z"/><path class="cls-1" d="M242.64,29.77h-4.38V27.62h-.06a4.88,4.88,0,0,1-4.47,2.52,4.64,4.64,0,0,1-3.43-1.24,4.39,4.39,0,0,1-1.25-3.3q0-4.37,5.17-5l4.07-.54q0-2.46-2.67-2.46a9.12,9.12,0,0,0-5.09,1.59V15.67a10.79,10.79,0,0,1,2.64-.88,13.57,13.57,0,0,1,3.05-.38q6.42,0,6.42,6.4Zm-4.35-6.09v-1l-2.73.35c-1.5.2-2.25.87-2.25,2a1.66,1.66,0,0,0,.55,1.29,2.08,2.08,0,0,0,1.48.51,2.76,2.76,0,0,0,2.13-.9A3.24,3.24,0,0,0,238.29,23.68Z"/><path class="cls-1" d="M251,28h-.06v8.64H246.3V14.77h4.63V17H251a5.89,5.89,0,0,1,9.32-.62,8.49,8.49,0,0,1,1.59,5.44,9.25,9.25,0,0,1-1.85,6,6.06,6.06,0,0,1-4.93,2.27A4.66,4.66,0,0,1,251,28Zm-.13-6.15v1.2a3.79,3.79,0,0,0,.82,2.53,2.63,2.63,0,0,0,2.15,1,2.81,2.81,0,0,0,2.45-1.22,5.82,5.82,0,0,0,.88-3.46q0-4-3.08-4A2.88,2.88,0,0,0,251.76,19,4.31,4.31,0,0,0,250.86,21.88Z"/><polygon class="cls-2" points="1.91 28.13 19.18 12.52 43.43 18.83 32.57 39.09 1.91 28.13"/><path class="cls-1" d="M23.36,0A13.57,13.57,0,0,1,26,.31a10.64,10.64,0,0,1,6.52,15.75c-3,5-5.87,6.65-8.78,11.72l-.39.65c-.15-.21-.26-.37-.36-.54-3-5.14-5.9-6.8-8.86-11.94A10.64,10.64,0,0,1,22.07.05S22.78,0,23.36,0Z"/><path class="cls-3" d="M23.35,17.54a6.88,6.88,0,1,0-6.86-6.85A6.85,6.85,0,0,0,23.35,17.54Z"/></g></g></svg>